<svg width="16" height="16" viewBox="0 0 16 16" fill="none" xmlns="http://www.w3.org/2000/svg">
<path d="M4.88889 5.66667H4.89667H4.88889ZM8 5.66667H8.00778H8ZM11.1111 5.66667H11.1189H11.1111ZM5.66667 10.3333H2.55556C2.143 10.3333 1.74733 10.1694 1.45561 9.87772C1.16389 9.586 1 9.19034 1 8.77778V2.55556C1 2.143 1.16389 1.74733 1.45561 1.45561C1.74733 1.16389 2.143 1 2.55556 1H13.4444C13.857 1 14.2527 1.16389 14.5444 1.45561C14.8361 1.74733 15 2.143 15 2.55556V8.77778C15 9.19034 14.8361 9.586 14.5444 9.87772C14.2527 10.1694 13.857 10.3333 13.4444 10.3333H9.55556L5.66667 14.2222V10.3333Z" stroke="#FE8C12" stroke-width="2" stroke-linecap="round" stroke-linejoin="round"/>
</svg>
