<svg width="153" height="30" viewBox="0 0 153 30" fill="none" xmlns="http://www.w3.org/2000/svg">
<path fill-rule="evenodd" clip-rule="evenodd" d="M140 0H0V30H140V20.7638L153 15.1178L140 9.47177V0Z" fill="#FE8C12"/>
<path d="M49.4375 21H42.7451V19.8584L46.0605 16.2422C46.5391 15.709 46.8786 15.2646 47.0791 14.9092C47.2842 14.5492 47.3867 14.1891 47.3867 13.8291C47.3867 13.3551 47.2523 12.9723 46.9834 12.6807C46.7191 12.389 46.3613 12.2432 45.9102 12.2432C45.3724 12.2432 44.9554 12.4072 44.6592 12.7354C44.363 13.0635 44.2148 13.5124 44.2148 14.082H42.5537C42.5537 13.4759 42.6904 12.9313 42.9639 12.4482C43.2419 11.9606 43.6361 11.5824 44.1465 11.3135C44.6615 11.0446 45.2539 10.9102 45.9238 10.9102C46.89 10.9102 47.651 11.154 48.207 11.6416C48.7676 12.1247 49.0479 12.7946 49.0479 13.6514C49.0479 14.1481 48.9066 14.6699 48.624 15.2168C48.346 15.7591 47.888 16.3766 47.25 17.0693L44.8164 19.6738H49.4375V21ZM55.2002 21H53.5459V13.0088L51.1055 13.8428V12.4414L54.9883 11.0127H55.2002V21ZM70.3555 16.2832C70.3555 17.2585 70.1868 18.1152 69.8496 18.8535C69.5124 19.5872 69.0293 20.1523 68.4004 20.5488C67.776 20.9408 67.056 21.1367 66.2402 21.1367C65.4336 21.1367 64.7135 20.9408 64.0801 20.5488C63.4512 20.1523 62.9635 19.5895 62.6172 18.8604C62.2754 18.1312 62.1022 17.2904 62.0977 16.3379V15.7773C62.0977 14.8066 62.2686 13.9499 62.6104 13.207C62.9567 12.4642 63.4421 11.8968 64.0664 11.5049C64.6953 11.1084 65.4154 10.9102 66.2266 10.9102C67.0378 10.9102 67.7555 11.1061 68.3799 11.498C69.0088 11.8854 69.4941 12.446 69.8359 13.1797C70.1777 13.9089 70.3509 14.7588 70.3555 15.7295V16.2832ZM68.626 15.7637C68.626 14.6608 68.4163 13.8154 67.9971 13.2275C67.5824 12.6396 66.9922 12.3457 66.2266 12.3457C65.4792 12.3457 64.8936 12.6396 64.4697 13.2275C64.0505 13.8109 63.8363 14.638 63.8271 15.709V16.2832C63.8271 17.377 64.0391 18.2223 64.4629 18.8193C64.8913 19.4163 65.4837 19.7148 66.2402 19.7148C67.0059 19.7148 67.5938 19.4232 68.0039 18.8398C68.4186 18.2565 68.626 17.4043 68.626 16.2832V15.7637ZM74.9561 19.8105C75.3708 19.8105 75.7148 19.6898 75.9883 19.4482C76.2617 19.2067 76.4076 18.9082 76.4258 18.5527H77.9912C77.973 19.013 77.8294 19.4437 77.5605 19.8447C77.2917 20.2412 76.9271 20.5557 76.4668 20.7881C76.0065 21.0205 75.5098 21.1367 74.9766 21.1367C73.9421 21.1367 73.1217 20.8018 72.5156 20.1318C71.9095 19.4619 71.6064 18.5368 71.6064 17.3564V17.1855C71.6064 16.0599 71.9072 15.1598 72.5088 14.4854C73.1104 13.8063 73.9307 13.4668 74.9697 13.4668C75.8493 13.4668 76.5648 13.7243 77.1162 14.2393C77.6722 14.7497 77.9639 15.4219 77.9912 16.2559H76.4258C76.4076 15.832 76.2617 15.4834 75.9883 15.21C75.7194 14.9365 75.3753 14.7998 74.9561 14.7998C74.4183 14.7998 74.0036 14.9958 73.7119 15.3877C73.4202 15.7751 73.2721 16.3652 73.2676 17.1582V17.4248C73.2676 18.2269 73.4111 18.8262 73.6982 19.2227C73.9899 19.6146 74.4092 19.8105 74.9561 19.8105ZM81.3271 11.8057V13.6035H82.6328V14.834H81.3271V18.9629C81.3271 19.2454 81.3818 19.4505 81.4912 19.5781C81.6051 19.7012 81.8057 19.7627 82.0928 19.7627C82.2842 19.7627 82.4779 19.7399 82.6738 19.6943V20.9795C82.2956 21.0843 81.931 21.1367 81.5801 21.1367C80.304 21.1367 79.666 20.4326 79.666 19.0244V14.834H78.4492V13.6035H79.666V11.8057H81.3271ZM84.1436 23.2422L83.248 22.709C83.5124 22.2943 83.6924 21.932 83.7881 21.6221C83.8883 21.3167 83.9408 21.0046 83.9453 20.6855V19.3936H85.4424L85.4355 20.5898C85.431 21.0729 85.3079 21.556 85.0664 22.0391C84.8294 22.5267 84.5218 22.9277 84.1436 23.2422ZM97.0566 21H90.3643V19.8584L93.6797 16.2422C94.1582 15.709 94.4977 15.2646 94.6982 14.9092C94.9033 14.5492 95.0059 14.1891 95.0059 13.8291C95.0059 13.3551 94.8714 12.9723 94.6025 12.6807C94.3382 12.389 93.9805 12.2432 93.5293 12.2432C92.9915 12.2432 92.5745 12.4072 92.2783 12.7354C91.9821 13.0635 91.834 13.5124 91.834 14.082H90.1729C90.1729 13.4759 90.3096 12.9313 90.583 12.4482C90.861 11.9606 91.2552 11.5824 91.7656 11.3135C92.2806 11.0446 92.873 10.9102 93.543 10.9102C94.5091 10.9102 95.2702 11.154 95.8262 11.6416C96.3867 12.1247 96.667 12.7946 96.667 13.6514C96.667 14.1481 96.5257 14.6699 96.2432 15.2168C95.9652 15.7591 95.5072 16.3766 94.8691 17.0693L92.4355 19.6738H97.0566V21ZM104.809 16.8096C104.809 18.2406 104.54 19.3206 104.002 20.0498C103.469 20.7744 102.655 21.1367 101.562 21.1367C100.486 21.1367 99.6748 20.7835 99.1279 20.0771C98.5856 19.3662 98.3076 18.3158 98.2939 16.9258V15.2031C98.2939 13.7721 98.5605 12.6989 99.0938 11.9834C99.6315 11.2679 100.45 10.9102 101.548 10.9102C102.637 10.9102 103.448 11.2588 103.981 11.9561C104.519 12.6533 104.795 13.6969 104.809 15.0869V16.8096ZM103.147 14.9502C103.147 14.016 103.02 13.3324 102.765 12.8994C102.509 12.4619 102.104 12.2432 101.548 12.2432C101.006 12.2432 100.607 12.4505 100.352 12.8652C100.096 13.2754 99.9619 13.918 99.9482 14.793V17.0488C99.9482 17.9785 100.078 18.6712 100.338 19.127C100.598 19.5827 101.006 19.8105 101.562 19.8105C102.095 19.8105 102.489 19.6009 102.744 19.1816C102.999 18.7578 103.134 18.097 103.147 17.1992V14.9502ZM112.971 21H106.278V19.8584L109.594 16.2422C110.072 15.709 110.412 15.2646 110.612 14.9092C110.817 14.5492 110.92 14.1891 110.92 13.8291C110.92 13.3551 110.785 12.9723 110.517 12.6807C110.252 12.389 109.895 12.2432 109.443 12.2432C108.906 12.2432 108.489 12.4072 108.192 12.7354C107.896 13.0635 107.748 13.5124 107.748 14.082H106.087C106.087 13.4759 106.224 12.9313 106.497 12.4482C106.775 11.9606 107.169 11.5824 107.68 11.3135C108.195 11.0446 108.787 10.9102 109.457 10.9102C110.423 10.9102 111.184 11.154 111.74 11.6416C112.301 12.1247 112.581 12.7946 112.581 13.6514C112.581 14.1481 112.44 14.6699 112.157 15.2168C111.879 15.7591 111.421 16.3766 110.783 17.0693L108.35 19.6738H112.971V21ZM118.733 21H117.079V13.0088L114.639 13.8428V12.4414L118.521 11.0127H118.733V21Z" fill="white"/>
<path d="M17.625 8V8.625H15.125V22.375H28.875V8.625H26.375V8H25.125V8.625H18.875V8H17.625ZM16.375 9.875H17.625V10.5H18.875V9.875H25.125V10.5H26.375V9.875H27.625V11.125H16.375V9.875ZM16.375 12.375H27.625V21.125H16.375V12.375ZM20.125 13.625V14.875H21.375V13.625H20.125ZM22.625 13.625V14.875H23.875V13.625H22.625ZM25.125 13.625V14.875H26.375V13.625H25.125ZM17.625 16.125V17.375H18.875V16.125H17.625ZM20.125 16.125V17.375H21.375V16.125H20.125ZM22.625 16.125V17.375H23.875V16.125H22.625ZM25.125 16.125V17.375H26.375V16.125H25.125ZM17.625 18.625V19.875H18.875V18.625H17.625ZM20.125 18.625V19.875H21.375V18.625H20.125ZM22.625 18.625V19.875H23.875V18.625H22.625Z" fill="white"/>
</svg>
