<svg width="35" height="35" viewBox="0 0 35 35" fill="none" xmlns="http://www.w3.org/2000/svg">
<circle cx="17.5" cy="17.5" r="17.5" fill="#353B44"/>
<path d="M15.4512 11.0625C14.7949 11.0625 14.1855 11.2266 13.623 11.5547C13.0723 11.8828 12.6328 12.3281 12.3047 12.8906C11.9766 13.4414 11.8125 14.0449 11.8125 14.7012V19.7988C11.8125 20.4551 11.9766 21.0645 12.3047 21.627C12.6328 22.1777 13.0723 22.6172 13.623 22.9453C14.1855 23.2734 14.7949 23.4375 15.4512 23.4375H20.5488C21.2051 23.4375 21.8086 23.2734 22.3594 22.9453C22.9219 22.6172 23.3672 22.1777 23.6953 21.627C24.0234 21.0645 24.1875 20.4551 24.1875 19.7988V14.7012C24.1875 14.0449 24.0234 13.4414 23.6953 12.8906C23.3672 12.3281 22.9219 11.8828 22.3594 11.5547C21.8086 11.2266 21.2051 11.0625 20.5488 11.0625H15.4512ZM15.4512 12.1875H20.5488C21.0059 12.1875 21.4277 12.2988 21.8145 12.5215C22.2012 12.7441 22.5059 13.0488 22.7285 13.4355C22.9512 13.8223 23.0625 14.2441 23.0625 14.7012V19.7988C23.0625 20.2559 22.9512 20.6777 22.7285 21.0645C22.5059 21.4512 22.2012 21.7559 21.8145 21.9785C21.4277 22.2012 21.0059 22.3125 20.5488 22.3125H15.4512C14.9941 22.3125 14.5723 22.2012 14.1855 21.9785C13.7988 21.7559 13.4941 21.4512 13.2715 21.0645C13.0488 20.6777 12.9375 20.2559 12.9375 19.7988V14.7012C12.9375 14.2441 13.0488 13.8223 13.2715 13.4355C13.4941 13.0488 13.7988 12.7441 14.1855 12.5215C14.5723 12.2988 14.9941 12.1875 15.4512 12.1875ZM21.3223 13.418C21.1816 13.418 21.0586 13.4707 20.9531 13.5762C20.8594 13.6699 20.8125 13.7871 20.8125 13.9277C20.8125 14.0684 20.8594 14.1914 20.9531 14.2969C21.0586 14.3906 21.1816 14.4375 21.3223 14.4375C21.4629 14.4375 21.5801 14.3906 21.6738 14.2969C21.7793 14.1914 21.832 14.0684 21.832 13.9277C21.832 13.7871 21.7793 13.6699 21.6738 13.5762C21.5801 13.4707 21.4629 13.418 21.3223 13.418ZM18 13.875C17.3906 13.875 16.8281 14.0273 16.3125 14.332C15.7969 14.6367 15.3867 15.0469 15.082 15.5625C14.7773 16.0781 14.625 16.6406 14.625 17.25C14.625 17.8594 14.7773 18.4219 15.082 18.9375C15.3867 19.4531 15.7969 19.8633 16.3125 20.168C16.8281 20.4727 17.3906 20.625 18 20.625C18.6094 20.625 19.1719 20.4727 19.6875 20.168C20.2031 19.8633 20.6133 19.4531 20.918 18.9375C21.2227 18.4219 21.375 17.8594 21.375 17.25C21.375 16.6406 21.2227 16.0781 20.918 15.5625C20.6133 15.0469 20.2031 14.6367 19.6875 14.332C19.1719 14.0273 18.6094 13.875 18 13.875ZM18 15C18.4102 15 18.7852 15.0996 19.125 15.2988C19.4766 15.498 19.752 15.7734 19.9512 16.125C20.1504 16.4648 20.25 16.8398 20.25 17.25C20.25 17.6602 20.1504 18.041 19.9512 18.3926C19.752 18.7324 19.4766 19.002 19.125 19.2012C18.7852 19.4004 18.4102 19.5 18 19.5C17.5898 19.5 17.209 19.4004 16.8574 19.2012C16.5176 19.002 16.248 18.7324 16.0488 18.3926C15.8496 18.041 15.75 17.6602 15.75 17.25C15.75 16.8398 15.8496 16.4648 16.0488 16.125C16.248 15.7734 16.5176 15.498 16.8574 15.2988C17.209 15.0996 17.5898 15 18 15Z" fill="white"/>
</svg>
