<svg width="50" height="50" viewBox="0 0 50 50" fill="none" xmlns="http://www.w3.org/2000/svg">
<circle cx="25" cy="25" r="25" fill="white"/>
<path d="M22.168 18.625C21.4388 18.625 20.7617 18.8073 20.1367 19.1719C19.5247 19.5365 19.0365 20.0312 18.6719 20.6562C18.3073 21.2682 18.125 21.9388 18.125 22.668V28.332C18.125 29.0612 18.3073 29.7383 18.6719 30.3633C19.0365 30.9753 19.5247 31.4635 20.1367 31.8281C20.7617 32.1927 21.4388 32.375 22.168 32.375H27.832C28.5612 32.375 29.2318 32.1927 29.8438 31.8281C30.4688 31.4635 30.9635 30.9753 31.3281 30.3633C31.6927 29.7383 31.875 29.0612 31.875 28.332V22.668C31.875 21.9388 31.6927 21.2682 31.3281 20.6562C30.9635 20.0312 30.4688 19.5365 29.8438 19.1719C29.2318 18.8073 28.5612 18.625 27.832 18.625H22.168ZM22.168 19.875H27.832C28.3398 19.875 28.8086 19.9987 29.2383 20.2461C29.668 20.4935 30.0065 20.832 30.2539 21.2617C30.5013 21.6914 30.625 22.1602 30.625 22.668V28.332C30.625 28.8398 30.5013 29.3086 30.2539 29.7383C30.0065 30.168 29.668 30.5065 29.2383 30.7539C28.8086 31.0013 28.3398 31.125 27.832 31.125H22.168C21.6602 31.125 21.1914 31.0013 20.7617 30.7539C20.332 30.5065 19.9935 30.168 19.7461 29.7383C19.4987 29.3086 19.375 28.8398 19.375 28.332V22.668C19.375 22.1602 19.4987 21.6914 19.7461 21.2617C19.9935 20.832 20.332 20.4935 20.7617 20.2461C21.1914 19.9987 21.6602 19.875 22.168 19.875ZM28.6914 21.2422C28.5352 21.2422 28.3984 21.3008 28.2812 21.418C28.1771 21.5221 28.125 21.6523 28.125 21.8086C28.125 21.9648 28.1771 22.1016 28.2812 22.2188C28.3984 22.3229 28.5352 22.375 28.6914 22.375C28.8477 22.375 28.9779 22.3229 29.082 22.2188C29.1992 22.1016 29.2578 21.9648 29.2578 21.8086C29.2578 21.6523 29.1992 21.5221 29.082 21.418C28.9779 21.3008 28.8477 21.2422 28.6914 21.2422ZM25 21.75C24.3229 21.75 23.6979 21.9193 23.125 22.2578C22.5521 22.5964 22.0964 23.0521 21.7578 23.625C21.4193 24.1979 21.25 24.8229 21.25 25.5C21.25 26.1771 21.4193 26.8021 21.7578 27.375C22.0964 27.9479 22.5521 28.4036 23.125 28.7422C23.6979 29.0807 24.3229 29.25 25 29.25C25.6771 29.25 26.3021 29.0807 26.875 28.7422C27.4479 28.4036 27.9036 27.9479 28.2422 27.375C28.5807 26.8021 28.75 26.1771 28.75 25.5C28.75 24.8229 28.5807 24.1979 28.2422 23.625C27.9036 23.0521 27.4479 22.5964 26.875 22.2578C26.3021 21.9193 25.6771 21.75 25 21.75ZM25 23C25.4557 23 25.8724 23.1107 26.25 23.332C26.6406 23.5534 26.9466 23.8594 27.168 24.25C27.3893 24.6276 27.5 25.0443 27.5 25.5C27.5 25.9557 27.3893 26.3789 27.168 26.7695C26.9466 27.1471 26.6406 27.4466 26.25 27.668C25.8724 27.8893 25.4557 28 25 28C24.5443 28 24.1211 27.8893 23.7305 27.668C23.3529 27.4466 23.0534 27.1471 22.832 26.7695C22.6107 26.3789 22.5 25.9557 22.5 25.5C22.5 25.0443 22.6107 24.6276 22.832 24.25C23.0534 23.8594 23.3529 23.5534 23.7305 23.332C24.1211 23.1107 24.5443 23 25 23Z" fill="#0A0A0B"/>
</svg>
