<svg width="35" height="35" viewBox="0 0 35 35" fill="none" xmlns="http://www.w3.org/2000/svg">
<circle cx="17.5" cy="17.5" r="17.5" fill="#353B44"/>
<path d="M13.8691 10.5C13.459 10.5 13.1074 10.6465 12.8145 10.9395C12.5215 11.2207 12.375 11.5723 12.375 11.9941C12.375 12.4043 12.5215 12.7559 12.8145 13.0488C13.1074 13.3418 13.4531 13.4883 13.8516 13.4883C14.2617 13.4883 14.6133 13.3418 14.9062 13.0488C15.1992 12.7559 15.3457 12.4043 15.3457 11.9941C15.3457 11.584 15.1992 11.2324 14.9062 10.9395C14.625 10.6465 14.2793 10.5 13.8691 10.5ZM21.1113 14.4375C20.5371 14.4375 20.0391 14.5723 19.6172 14.8418C19.2773 15.0645 19.0078 15.3633 18.8086 15.7383H18.7734V14.6133H16.3125V22.875H18.8789V18.7793C18.8789 18.334 18.9023 17.9941 18.9492 17.7598C19.0195 17.4082 19.1484 17.1445 19.3359 16.9688C19.5586 16.7695 19.875 16.6699 20.2852 16.6699C20.6953 16.6699 21.0059 16.7871 21.2168 17.0215C21.3926 17.209 21.5098 17.4902 21.5684 17.8652C21.6035 18.0879 21.6211 18.416 21.6211 18.8496V22.875H24.1875V18.3398C24.1875 17.5078 24.1113 16.8398 23.959 16.3359C23.7832 15.7266 23.4844 15.2637 23.0625 14.9473C22.5938 14.6074 21.9434 14.4375 21.1113 14.4375ZM12.5859 14.6133V22.875H15.1523V14.6133H12.5859Z" fill="white"/>
</svg>
