<svg width="50" height="50" viewBox="0 0 50 50" fill="none" xmlns="http://www.w3.org/2000/svg">
<circle cx="25" cy="25" r="25" fill="white"/>
<path d="M20.4102 18C19.9544 18 19.5638 18.1628 19.2383 18.4883C18.9128 18.8008 18.75 19.1914 18.75 19.6602C18.75 20.1159 18.9128 20.5065 19.2383 20.832C19.5638 21.1576 19.9479 21.3203 20.3906 21.3203C20.8464 21.3203 21.237 21.1576 21.5625 20.832C21.888 20.5065 22.0508 20.1159 22.0508 19.6602C22.0508 19.2044 21.888 18.8138 21.5625 18.4883C21.25 18.1628 20.8659 18 20.4102 18ZM28.457 22.375C27.819 22.375 27.2656 22.5247 26.7969 22.8242C26.4193 23.0716 26.1198 23.4036 25.8984 23.8203H25.8594V22.5703H23.125V31.75H25.9766V27.1992C25.9766 26.7044 26.0026 26.3268 26.0547 26.0664C26.1328 25.6758 26.276 25.3828 26.4844 25.1875C26.7318 24.9661 27.0833 24.8555 27.5391 24.8555C27.9948 24.8555 28.3398 24.9857 28.5742 25.2461C28.7695 25.4544 28.8997 25.7669 28.9648 26.1836C29.0039 26.431 29.0234 26.7956 29.0234 27.2773V31.75H31.875V26.7109C31.875 25.7865 31.7904 25.0443 31.6211 24.4844C31.4258 23.8073 31.0938 23.293 30.625 22.9414C30.1042 22.5638 29.3815 22.375 28.457 22.375ZM18.9844 22.5703V31.75H21.8359V22.5703H18.9844Z" fill="#0A0A0B"/>
</svg>
