<svg width="60" height="60" viewBox="0 0 60 60" fill="none" xmlns="http://www.w3.org/2000/svg">
<circle cx="30" cy="30" r="30" fill="white"/>
<path fill-rule="evenodd" clip-rule="evenodd" d="M23.501 22.0407C23.3209 22.1075 23.1682 22.2469 23.0788 22.4263L23 22.5846V29.7877V36.9909L23.0788 37.1491C23.1738 37.3397 23.3263 37.4721 23.5282 37.5392C23.7485 37.6124 23.9577 37.5814 24.226 37.4359C24.3468 37.3704 27.1916 35.7721 30.5478 33.8841C34.3509 31.7448 36.6932 30.4099 36.7646 30.3412C36.9311 30.1812 37 30.0192 37 29.7877C37 29.5562 36.9311 29.3943 36.7646 29.2342C36.6932 29.1655 34.3509 27.8307 30.5478 25.6913C27.1916 23.8033 24.3455 22.2043 24.2231 22.1379C23.9632 21.997 23.7108 21.963 23.501 22.0407Z" fill="#0A0A0B"/>
</svg>
