<svg width="90" height="90" viewBox="0 0 90 90" fill="none" xmlns="http://www.w3.org/2000/svg">
<circle cx="40" cy="50" r="40" fill="#FE8C12"/>
<circle cx="50" cy="40" r="39.5" stroke="#FE8C12"/>
<path fill-rule="evenodd" clip-rule="evenodd" d="M20.5971 36.1544C20.4182 36.2469 20.2435 36.423 20.1467 36.6085C19.9905 36.9075 19.9887 37.0099 20.0091 44.575C20.0296 52.1804 20.031 52.2401 20.1908 52.4492C20.2795 52.5651 20.449 52.7307 20.5677 52.8172C20.7765 52.9696 20.8895 52.9752 24.1353 52.996L27.4872 53.0174L27.5093 58.1081C27.5314 63.1888 27.5318 63.1994 27.7019 63.4659C28.0387 63.9937 28.073 64 30.6104 64H32.8838L33.1923 63.7278C33.4969 63.4592 33.5259 63.3823 35.4599 57.7129L37.4189 51.9701L37.3982 44.3709C37.3777 36.8306 37.3763 36.7701 37.2164 36.5611C37.1278 36.4452 36.9582 36.2796 36.8395 36.1931C36.6253 36.0369 36.5675 36.0356 28.7565 36.0194C21.047 36.0035 20.8834 36.0062 20.5971 36.1544ZM43.3125 36.1049C42.9981 36.2386 42.6695 36.6284 42.6132 36.9345C42.5883 37.0697 42.5781 40.5684 42.5905 44.7094C42.613 52.1775 42.6145 52.2402 42.7743 52.4492C42.8629 52.5651 43.0324 52.7307 43.1511 52.8172C43.36 52.9696 43.4725 52.9752 46.7588 52.996L50.1507 53.0173L50.1719 58.2022L50.193 63.3871L50.4872 63.6745L50.7814 63.9618L53.083 63.9842C55.6367 64.0089 55.7202 63.9957 56.0181 63.5194C56.1021 63.3851 57.0324 60.7501 58.0855 57.6641L60 52.0529V44.48C60 37.0409 59.9972 36.9018 59.8427 36.606C59.7414 36.4121 59.5754 36.2501 59.3769 36.1512C59.0738 36.0003 58.9347 35.9977 51.3097 36.0006C45.0356 36.003 43.5052 36.0229 43.3125 36.1049Z" fill="white"/>
</svg>
