<svg width="80" height="80" viewBox="0 0 80 80" fill="none" xmlns="http://www.w3.org/2000/svg">
<circle cx="40" cy="40" r="40" fill="white"/>
<path fill-rule="evenodd" clip-rule="evenodd" d="M48.3212 20.1276C47.9198 20.2689 47.468 20.6918 47.2498 21.1305C47.1042 21.4232 47.0954 21.6152 47.0954 24.5288C47.0954 27.5456 47.0994 27.6241 47.265 27.9296C47.3584 28.1016 47.5526 28.3549 47.6965 28.4924C48.143 28.919 48.4654 29.0096 49.6688 29.0473L50.7517 29.0812L50.7092 29.2872C50.5689 29.9669 50.111 32.7617 50.1309 32.8163C50.1442 32.8523 51.5316 32.0231 53.2143 30.9735L56.2738 29.0652L57.1917 29.0642C57.6965 29.0637 58.2893 29.0248 58.509 28.9778C59.052 28.8618 59.5198 28.4934 59.7842 27.9737L60 27.5497L59.9982 24.4952C59.9967 21.7016 59.9842 21.4137 59.8526 21.1249C59.6713 20.7272 59.0844 20.2065 58.6815 20.0863C58.4589 20.0198 57.0291 19.9961 53.519 20.0005C49.3508 20.0058 48.6158 20.0237 48.3212 20.1276ZM58.5522 21.5153L58.7449 21.7072V24.4522C58.7449 27.2528 58.7296 27.4107 58.4379 27.6339C58.3531 27.6987 57.939 27.73 57.1424 27.7316L55.9714 27.7341L53.943 28.9954C52.8274 29.689 51.9019 30.243 51.8864 30.2266C51.871 30.2102 51.9558 29.6426 52.0749 28.9654L52.2912 27.7341H50.533H48.7749L48.5824 27.5422L48.3898 27.3504V24.5178C48.3898 21.7172 48.3917 21.6833 48.5603 21.5043L48.731 21.3234H53.5454H58.3598L58.5522 21.5153ZM38.2309 21.9987C37.423 22.0843 35.9068 22.3721 35.1555 22.5823C32.0856 23.4414 29.4047 24.9992 27.1662 27.2246C24.9415 29.4363 23.4022 32.0212 22.5498 34.9766L22.2873 35.8866L21.7163 34.935C21.4023 34.4116 21.1149 33.9646 21.0777 33.9418C21.0267 33.9103 20.2247 34.3318 20.0002 34.5079C19.977 34.5262 21.7483 37.5265 22.1801 38.2005C22.2339 38.2843 22.6608 38.0624 24.1211 37.1914C25.1507 36.5773 26.004 36.0666 26.0172 36.0566C26.0345 36.0434 25.4673 35.0671 25.3755 34.9523C25.3695 34.945 24.9943 35.1637 24.5415 35.4384C24.0887 35.7132 23.6944 35.9392 23.6654 35.9405C23.5812 35.9445 23.9002 34.8854 24.2668 33.9442C26.2402 28.8777 30.5015 25.1118 35.8074 23.7453C38.4251 23.0712 41.45 23.0706 44.0952 23.7438L44.9388 23.9584L45.1274 23.364C45.2654 22.929 45.2911 22.7557 45.2237 22.7174C45.0573 22.6229 43.8652 22.3415 42.9221 22.1742C42.2088 22.0477 41.6002 22.0048 40.2706 21.9877C39.3213 21.9754 38.4034 21.9804 38.2309 21.9987ZM49.6614 23.2193L49.6842 23.8642L53.5477 23.8845L57.4113 23.9048V23.2395V22.5743H53.525H49.6386L49.6614 23.2193ZM49.6614 25.7992L49.6842 26.4442L52.2534 26.4648L54.8225 26.4854V25.8198V25.1542H52.2306H49.6386L49.6614 25.7992ZM56.1561 25.8187V26.4833H56.7837H57.4113V25.8187V25.1542H56.7837H56.1561V25.8187ZM38.7016 26.5345C37.097 26.7899 35.4281 27.5968 34.2133 28.7048C33.1292 29.6935 32.1962 31.2591 31.7791 32.7894L31.5695 33.5586L31.5662 36.7639L31.5629 39.9693L31.7669 40.4029C32.0635 41.033 32.408 41.3812 33.0332 41.6826L33.5837 41.948L33.8013 42.6222C33.921 42.993 34.1722 43.5665 34.3598 43.8966C34.7408 44.5674 35.7286 45.6188 36.3284 45.9919C36.5875 46.1531 36.701 46.2754 36.701 46.394C36.7012 46.5899 36.8933 46.5422 33.9419 47.0802C32.8774 47.2743 31.8132 47.5051 31.577 47.5932C30.3217 48.0614 29.367 49.0556 28.8886 50.3933C28.7706 50.7229 28.6518 51.0189 28.6244 51.051C28.597 51.083 28.0555 50.5878 27.4211 49.9506C25.863 48.3853 25.8489 48.6082 27.6192 46.8334L28.9706 45.4785L26.5798 43.0929L24.1888 40.7073L22.4561 42.4491C20.9948 43.9181 20.6848 44.2706 20.4766 44.6991C20.0908 45.4936 19.9698 46.09 20.0095 47.0007C20.0475 47.8724 20.213 48.4362 20.6335 49.1279C20.7979 49.3982 22.5821 51.2266 25.7924 54.4148C30.3752 58.9662 30.7358 59.3056 31.2417 59.545C32.6514 60.2119 34.3682 60.1407 35.6042 59.3641C35.8172 59.2302 36.8028 58.3826 37.7945 57.4802L39.5975 55.8398L39.1126 55.3511L38.6277 54.8625H45.5484C49.3547 54.8625 52.469 54.8354 52.469 54.8024C52.469 54.5929 50.8682 50.0162 50.6537 49.6122C50.3209 48.9858 49.5119 48.1742 48.8997 47.8528C48.251 47.5122 47.8571 47.411 45.605 47.0061C42.9988 46.5375 43.2114 46.5921 43.2172 46.3934C43.2207 46.2747 43.4008 46.0942 43.8158 45.7937C44.1424 45.5571 44.5649 45.1826 44.7548 44.9614L45.1002 44.5591L46.0193 44.5282C46.7618 44.5033 46.9991 44.4656 47.2534 44.3325C47.6514 44.124 47.9665 43.8111 48.182 43.4102C48.349 43.0994 48.3506 43.0539 48.3506 38.4838C48.3506 34.3405 48.3362 33.805 48.2098 33.2206C47.512 29.9966 45.2094 27.5671 42.0385 26.7094C41.5882 26.5876 41.1478 26.5431 40.1921 26.5232C39.5018 26.5088 38.831 26.5139 38.7016 26.5345ZM41.1174 27.8508C43.6836 28.2968 45.8392 30.1113 46.6701 32.5248C46.987 33.445 47.055 33.9953 47.0556 35.6436L47.0562 37.1031L46.7424 36.9803C46.4364 36.8605 46.4286 36.848 46.4286 36.4784V36.0994H45.6801C43.7752 36.0994 41.9796 35.3226 40.551 33.8808L39.9687 33.293L39.2839 33.9424C37.7264 35.4196 36.1346 36.0994 34.2334 36.0994H33.4848V36.4784C33.4848 36.8494 33.4781 36.8601 33.1638 36.9831L32.8426 37.1088L32.8784 35.2946C32.9184 33.2715 32.9656 33.0088 33.4898 31.8898C34.4333 29.8758 36.275 28.3806 38.3545 27.9403C39.4762 27.7029 40.1418 27.6813 41.1174 27.8508ZM55.8122 32.2086C55.7495 32.3061 55.2375 33.1513 54.6746 34.0869L53.651 35.7879L53.9818 35.9913C54.1637 36.1033 54.3908 36.2437 54.4863 36.3034C54.5819 36.3632 54.6886 36.4121 54.7236 36.4121C54.7586 36.4121 55.0304 36.0047 55.3277 35.5067C55.685 34.9084 55.8878 34.6367 55.9262 34.7054C55.9582 34.7626 56.0752 35.1436 56.1864 35.5521C57.5188 40.4479 56.5672 45.7086 53.6059 49.8179C53.3588 50.1608 53.1411 50.4818 53.1221 50.5311C53.0918 50.6098 53.9237 51.3423 54.045 51.3438C54.139 51.345 55.0104 50.104 55.5445 49.2082C57.2227 46.3935 58.0582 43.3393 58.0614 40.0083C58.063 38.2097 57.8071 36.3927 57.3353 34.8526C57.2503 34.5753 57.1903 34.339 57.2018 34.3275C57.2198 34.3095 57.9053 34.7056 58.7983 35.2498L59.048 35.4019L59.3776 34.849C59.5588 34.5449 59.6937 34.2832 59.6771 34.2674C59.6391 34.2314 56.2819 32.2211 56.0774 32.1121C55.955 32.0468 55.9043 32.0652 55.8122 32.2086ZM40.5024 35.5741C41.5232 36.4132 43.0004 37.0791 44.2714 37.2731C44.6165 37.3258 44.943 37.3813 44.997 37.3962C45.0721 37.4171 45.0948 37.8846 45.0938 39.4C45.0926 41.5248 45.0418 41.9277 44.6701 42.763L44.4705 43.2113L42.2136 43.2321L39.9567 43.2528V43.8782V44.5037L41.6434 44.5428L43.33 44.5818L42.9594 44.8383C42.4034 45.223 41.6798 45.5403 41.0298 45.6845C40.2524 45.8568 39.0547 45.8033 38.3486 45.5646C36.7588 45.0272 35.5377 43.785 34.9999 42.1583C34.803 41.5629 34.7914 41.4357 34.7578 39.5101C34.7193 37.2979 34.7084 37.3538 35.181 37.3514C35.559 37.3496 36.8399 37.0039 37.4891 36.7286C38.0925 36.4727 39.4508 35.6165 39.7139 35.3261C39.7962 35.2354 39.8942 35.1612 39.9318 35.1612C39.9694 35.1612 40.2262 35.347 40.5024 35.5741ZM33.4848 39.3965V40.5047L33.2813 40.3151C33.1694 40.2109 33.0281 40.0306 32.9674 39.9146C32.8351 39.661 32.8229 39.0482 32.9455 38.811C33.0574 38.5943 33.3352 38.2884 33.42 38.2884C33.4557 38.2884 33.4848 38.787 33.4848 39.3965ZM46.9124 38.7614C47.1869 39.2715 47.0726 39.905 46.6322 40.3151L46.4286 40.5047V39.387V38.2693L46.5986 38.3818C46.6922 38.4437 46.8334 38.6146 46.9124 38.7614ZM47.0562 42.24C47.0562 42.7621 47.0341 42.852 46.8636 43.0218C46.7119 43.173 46.5901 43.2137 46.2889 43.2137H45.9068L46.0872 42.686C46.1865 42.3958 46.2686 42.1044 46.2697 42.0386C46.2714 41.9412 46.7298 41.7022 46.9974 41.6595C47.0298 41.6543 47.0562 41.9155 47.0562 42.24ZM26.8152 45.8322L26.462 46.1843L24.9744 44.7002L23.4869 43.2162L23.8361 42.8617L24.1853 42.507L25.6769 43.9936L27.1686 45.4802L26.8152 45.8322ZM25.2936 47.3942C24.8906 47.9861 24.8385 48.749 25.1593 49.365C25.3945 49.8167 30.391 54.7466 30.775 54.9058C31.3788 55.1561 32.3181 55.0226 32.7414 54.6263C32.9017 54.4762 32.9068 54.4803 34.3898 55.9639L35.8774 57.4519L35.4671 57.8318C35.2414 58.0406 34.8531 58.311 34.6042 58.4328C34.1866 58.6371 34.0818 58.6542 33.2495 58.6535C31.7734 58.6523 32.1898 58.9802 26.6045 53.4238C21.3742 48.2206 21.5125 48.3811 21.3065 47.2769C21.1341 46.3528 21.456 45.3276 22.1658 44.541L22.5282 44.1392L24.0121 45.6181L25.4961 47.0969L25.2936 47.3942ZM39.9959 47.07C40.6305 47.067 41.1287 47.0225 41.4079 46.9441C41.6451 46.8774 41.8469 46.8305 41.8562 46.8398C41.8657 46.8491 41.4416 47.286 40.9138 47.8106L39.9545 48.7646L38.9842 47.7954L38.0141 46.8262L38.5147 46.9504C38.8459 47.0326 39.3472 47.0731 39.9959 47.07ZM38.5243 49.2132L39.9175 50.6001L41.3225 49.2014L42.7276 47.8029L45.186 48.2463C47.177 48.6054 47.7361 48.7341 48.1259 48.923C48.6591 49.1816 49.1418 49.6088 49.4496 50.0948C49.6194 50.363 50.6648 53.2642 50.6648 53.4675C50.6648 53.5038 47.6549 53.5334 43.9762 53.5334H37.2877L36.0736 52.3217C35.4058 51.6552 34.8289 51.1098 34.7913 51.1098C34.7538 51.1098 34.2238 51.5614 33.6137 52.1134C31.8393 53.7185 31.7763 53.768 31.5075 53.768C31.3063 53.768 31.1299 53.635 30.461 52.979L29.6565 52.19L29.9602 51.2889C30.3046 50.2674 30.6122 49.7386 31.0882 49.3499C31.694 48.8552 32.1414 48.7151 34.5465 48.2666C35.7963 48.0337 36.889 47.8392 36.975 47.8347C37.0785 47.8291 37.6002 48.2934 38.5243 49.2132ZM37.3098 56.1716L36.9002 56.5849L35.4083 55.0938L33.9163 53.6026L34.3406 53.2098L34.7649 52.817L36.2421 54.2877L37.7194 55.7583L37.3098 56.1716Z" fill="#FE8C12"/>
</svg>
