<svg width="1920" height="212" viewBox="0 0 1920 212" fill="none" xmlns="http://www.w3.org/2000/svg">
<g opacity="0.05">
<path d="M1560.64 422.061L1847.37 199.532L1852.82 203.765L1565.31 425.689L1560.64 422.061Z" fill="white"/>
<path d="M1931.5 154.176L1733.59 307.165L1735.93 308.979L1931.5 157.804L1931.5 154.176Z" fill="white"/>
<path d="M1931.5 60.448L1761.64 192.272L1766.32 195.9L1931.5 68.3091L1931.5 60.448Z" fill="white"/>
<path d="M1931.5 25.381L1739.05 174.741L1743.72 178.37L1931.5 33.242L1931.5 25.381Z" fill="white"/>
<path d="M1788.13 155.99L1830.21 123.336L1832.54 125.15L1790.47 157.804L1788.13 155.99Z" fill="white"/>
<path d="M1931.5 4.82165L1816.96 93.7122L1819.3 95.5264L1931.5 9.05451L1931.5 4.82165Z" fill="white"/>
<path d="M1682.96 272.701L1920.6 88.2676L1922.94 90.6864L1685.29 274.515L1682.96 272.701Z" fill="white"/>
<path d="M1474.9 398.475L1725.01 204.367L1727.35 206.786L1477.24 400.289L1474.9 398.475Z" fill="white"/>
<path d="M1931.5 -29.0408L1800.6 71.9438L1802.94 73.7578L1931.5 -25.4126L1931.5 -29.0408Z" fill="white"/>
<path d="M1442.2 330.146L1728.93 108.222L1734.39 111.85L1446.88 334.379L1442.2 330.146Z" fill="white"/>
<path d="M1419.6 312.607L1706.33 90.6832L1711.79 94.3114L1424.28 316.84L1419.6 312.607Z" fill="white"/>
<path d="M1592.56 197.718L1843.45 4.21475L1845.78 6.02888L1594.89 199.532L1592.56 197.718Z" fill="white"/>
<path d="M1665.04 180.18L1707.89 147.526L1710.23 149.34L1668.15 181.994L1665.04 180.18Z" fill="white"/>
<path d="M1497.5 231.577L1626.06 132.407L1628.4 134.221L1499.83 233.392L1497.5 231.577Z" fill="white"/>
<path d="M1620.6 82.8267L1908.11 -139.098L1912.78 -135.469L1625.27 87.0596L1620.6 82.8267Z" fill="white"/>
<path d="M1598.04 65.2874L1884.77 -156.637L1890.22 -153.009L1602.71 68.9155L1598.04 65.2874Z" fill="white"/>
<path d="M1647.1 47.1494L1689.17 13.8909L1691.51 15.705L1649.44 48.9634L1647.1 47.1494Z" fill="white"/>
<path d="M1541.93 163.852L1779.57 -20.581L1781.91 -18.7669L1544.26 165.666L1541.93 163.852Z" fill="white"/>
<path d="M1182.74 422.061L1470.25 199.532L1474.92 203.16L1188.19 425.689L1182.74 422.061Z" fill="white"/>
<path d="M1160.14 404.522L1447.65 181.993L1452.32 185.621L1164.81 408.15L1160.14 404.522Z" fill="white"/>
<path d="M1333.87 289.633L1583.98 95.5251L1586.32 97.3392L1336.21 291.447L1333.87 289.633Z" fill="white"/>
<path d="M1301.17 221.304L1587.9 -1.22447L1593.36 2.40379L1305.85 224.933L1301.17 221.304Z" fill="white"/>
<path d="M1278.57 203.766L1565.3 -18.763L1570.76 -15.1349L1283.25 207.394L1278.57 203.766Z" fill="white"/>
<path d="M1451.52 88.8695L1702.41 -105.239L1704.75 -103.424L1453.86 90.6836L1451.52 88.8695Z" fill="white"/>
<path d="M1524.01 71.3387L1566.86 38.0802L1569.2 39.8944L1527.12 73.1528L1524.01 71.3387Z" fill="white"/>
<path d="M1327.64 185.022L1369.71 152.369L1372.05 154.183L1329.97 186.836L1327.64 185.022Z" fill="white"/>
<path d="M1356.46 122.737L1485.02 22.9615L1487.36 24.7756L1358.8 124.551L1356.46 122.737Z" fill="white"/>
<path d="M1222.46 301.724L1460.11 117.896L1462.44 119.71L1224.8 303.539L1222.46 301.724Z" fill="white"/>
<path d="M1400.89 54.4051L1638.54 -130.028L1640.87 -127.609L1403.23 56.2192L1400.89 54.4051Z" fill="white"/>
<path d="M1041.71 312.615L1329.21 90.6903L1333.89 94.3185L1046.38 316.243L1041.71 312.615Z" fill="white"/>
<path d="M1019.11 295.076L1306.62 73.1517L1311.29 76.7799L1023.78 298.704L1019.11 295.076Z" fill="white"/>
<path d="M1192.84 180.18L1442.95 -13.9285L1445.29 -12.1145L1195.18 181.994L1192.84 180.18Z" fill="white"/>
<path d="M1265.32 162.649L1307.39 129.995L1309.73 131.809L1267.66 164.463L1265.32 162.649Z" fill="white"/>
<path d="M1097.8 214.047L1226.36 114.272L1228.7 116.69L1100.13 215.861L1097.8 214.047Z" fill="white"/>
<path d="M963.016 393.64L1200.66 209.207L1203.78 211.021L965.353 395.454L963.016 393.64Z" fill="white"/>
<path d="M1160.14 111.851L1446.87 -110.073L1452.32 -106.445L1164.81 116.084L1160.14 111.851Z" fill="white"/>
<path d="M1137.54 94.3126L1424.27 -127.612L1429.72 -123.983L1142.21 98.5454L1137.54 94.3126Z" fill="white"/>
<path d="M1186.6 76.1737L1228.68 42.9153L1231.02 44.7293L1188.94 77.9878L1186.6 76.1737Z" fill="white"/>
<path d="M1215.47 13.2821L1344.03 -85.8884L1346.37 -84.0743L1217.81 15.0962L1215.47 13.2821Z" fill="white"/>
<path d="M1081.43 192.883L1319.07 8.45024L1321.41 10.2644L1083.77 194.697L1081.43 192.883Z" fill="white"/>
<path d="M699.643 433.554L986.374 211.025L991.828 214.653L704.318 437.182L699.643 433.554Z" fill="white"/>
<path d="M873.412 318.658L1123.52 124.549L1125.86 126.364L875.75 320.472L873.412 318.658Z" fill="white"/>
<path d="M900.673 203.766L1188.18 -18.763L1192.86 -15.1349L906.127 207.394L900.673 203.766Z" fill="white"/>
<path d="M878.074 186.227L1165.58 -36.3016L1170.26 -32.6734L882.749 189.855L878.074 186.227Z" fill="white"/>
<path d="M1051.84 71.3387L1301.95 -122.769L1304.29 -120.955L1054.18 73.1528L1051.84 71.3387Z" fill="white"/>
<path d="M1124.29 53.1954L1166.36 20.5418L1168.7 22.3559L1126.62 55.6143L1124.29 53.1954Z" fill="white"/>
<path d="M927.176 167.484L969.25 134.83L971.588 136.644L929.513 169.298L927.176 167.484Z" fill="white"/>
<path d="M956.765 104.593L1084.55 5.42291L1087.66 7.23705L959.102 107.012L956.765 104.593Z" fill="white"/>
<path d="M821.984 284.193L1059.63 99.7603L1062.74 101.574L824.321 286.007L821.984 284.193Z" fill="white"/>
<path d="M1311.29 -215.9L1309.73 -216.504L1302.72 -216.504L1019.11 3.00113L1023.78 6.6294L1311.29 -215.9Z" fill="white"/>
<path d="M940.397 83.4295L1178.04 -101.003L1180.38 -98.5845L942.735 85.2437L940.397 83.4295Z" fill="white"/>
<path d="M581.209 341.639L868.719 119.715L873.394 123.343L585.884 345.267L581.209 341.639Z" fill="white"/>
<path d="M558.611 324.1L846.121 102.176L850.796 105.804L563.286 327.728L558.611 324.1Z" fill="white"/>
<path d="M732.38 209.204L982.49 15.0959L984.828 17.5147L734.718 211.018L732.38 209.204Z" fill="white"/>
<path d="M804.823 191.673L846.898 159.019L849.235 160.834L807.161 193.487L804.823 191.673Z" fill="white"/>
<path d="M636.522 243.07L765.084 143.9L768.2 145.714L639.639 244.884L636.522 243.07Z" fill="white"/>
<path d="M759.64 94.3112L1047.15 -128.218L1051.82 -123.985L765.094 97.9395L759.64 94.3112Z" fill="white"/>
<path d="M737.041 76.7805L1024.55 -145.748L1029.23 -141.516L741.716 80.4087L737.041 76.7805Z" fill="white"/>
<path d="M786.144 58.0292L828.219 25.3755L830.556 27.1896L788.482 59.8433L786.144 58.0292Z" fill="white"/>
<path d="M680.951 174.74L918.595 -9.08833L921.711 -7.27431L683.289 177.159L680.951 174.74Z" fill="white"/>
<path d="M321.744 432.949L609.253 211.025L613.928 214.653L327.198 437.182L321.744 432.949Z" fill="white"/>
<path d="M299.145 415.411L586.655 193.486L591.33 197.115L304.599 419.644L299.145 415.411Z" fill="white"/>
<path d="M472.896 300.514L723.785 107.011L726.123 108.825L475.233 302.328L472.896 300.514Z" fill="white"/>
<path d="M440.178 232.79L727.687 10.2614L732.362 13.8895L444.853 236.418L440.178 232.79Z" fill="white"/>
<path d="M417.579 215.251L704.309 -7.27782L709.763 -3.64954L422.253 218.879L417.579 215.251Z" fill="white"/>
<path d="M590.569 100.363L841.458 -93.7449L843.796 -91.9309L593.686 102.177L590.569 100.363Z" fill="white"/>
<path d="M663.791 82.2199L705.866 49.5662L708.204 51.3803L666.129 84.6387L663.791 82.2199Z" fill="white"/>
<path d="M466.681 196.508L508.755 163.854L511.093 165.668L469.018 198.322L466.681 196.508Z" fill="white"/>
<path d="M495.508 133.617L624.07 34.4468L626.407 36.261L498.625 136.036L495.508 133.617Z" fill="white"/>
<path d="M361.507 313.218L599.15 128.785L601.488 130.599L363.844 315.032L361.507 313.218Z" fill="white"/>
<path d="M539.919 65.891L777.562 -118.542L780.679 -116.728L542.256 67.7051L539.919 65.891Z" fill="white"/>
<path d="M181.491 324.1L468.221 101.571L472.896 105.804L186.165 327.728L181.491 324.1Z" fill="white"/>
<path d="M158.151 306.561L445.661 84.0324L450.335 87.6606L163.605 310.189L158.151 306.561Z" fill="white"/>
<path d="M331.902 191.673L582.012 -2.43488L585.128 -0.620865L334.239 193.487L331.902 191.673Z" fill="white"/>
<path d="M404.345 174.134L447.199 140.875L449.537 143.294L406.683 175.948L404.345 174.134Z" fill="white"/>
<path d="M236.841 225.532L365.402 125.757L367.74 127.571L239.179 227.346L236.841 225.532Z" fill="white"/>
<path d="M299.145 123.344L586.655 -98.5807L591.33 -94.9525L303.82 126.972L299.145 123.344Z" fill="white"/>
<path d="M276.546 105.805L564.056 -116.724L568.731 -112.491L281.221 109.433L276.546 105.805Z" fill="white"/>
<path d="M325.649 87.0615L367.723 54.4077L370.061 56.2219L327.986 88.8755L325.649 87.0615Z" fill="white"/>
<path d="M354.495 24.7757L483.057 -74.9995L486.173 -73.1853L357.612 26.5898L354.495 24.7757Z" fill="white"/>
<path d="M220.475 204.369L458.118 19.9361L460.456 21.7502L222.812 206.183L220.475 204.369Z" fill="white"/>
<path d="M12.4192 329.545L262.529 136.042L264.867 137.856L14.7566 331.359L12.4192 329.545Z" fill="white"/>
<path d="M40.4964 214.646L327.227 -7.27782L331.902 -3.64954L45.1715 218.879L40.4964 214.646Z" fill="white"/>
<path d="M17.1183 197.115L304.628 -24.8092L309.303 -21.181L22.5724 200.743L17.1183 197.115Z" fill="white"/>
<path d="M190.87 82.2187L440.98 -111.285L444.096 -109.471L193.207 84.0327L190.87 82.2187Z" fill="white"/>
<path d="M263.313 64.6878L305.387 32.0342L308.504 33.8482L265.65 66.502L263.313 64.6878Z" fill="white"/>
<path d="M66.2021 178.969L109.056 145.711L111.393 147.525L68.5396 180.783L66.2021 178.969Z" fill="white"/>
<path d="M95.8088 116.086L224.37 16.9153L226.708 18.7293L98.1462 117.9L95.8088 116.086Z" fill="white"/>
<path d="M-16.4145 281.771L201.75 113.06L199.413 111.246L-16.4145 278.142L-16.4145 281.771Z" fill="white"/>
<path d="M158.151 14.4949L445.661 -208.034L450.335 -204.406L162.826 18.1231L158.151 14.4949Z" fill="white"/>
<path d="M420.698 -216.502L410.569 -216.502L135.526 -3.04367L140.201 0.584482L420.698 -216.502Z" fill="white"/>
<path d="M79.4421 94.9227L317.086 -89.5102L319.423 -87.6962L81.7797 96.7368L79.4421 94.9227Z" fill="white"/>
<path d="M-16.4143 137.247L123.834 28.4009L121.497 26.5868L-16.4143 133.618L-16.4143 137.247Z" fill="white"/>
<path d="M-16.3869 47.7524L190.869 -113.097L186.194 -116.726L-16.3869 40.496L-16.3869 47.7524Z" fill="white"/>
<path d="M-16.39 12.6826L168.271 -130.631L163.596 -134.259L-16.39 4.82148L-16.39 12.6826Z" fill="white"/>
<path d="M-16.3806 63.4751L60.7561 3.61L58.4186 1.79598L-16.3806 59.8469L-16.3806 63.4751Z" fill="white"/>
</g>
</svg>
