<svg width="50" height="50" viewBox="0 0 50 50" fill="none" xmlns="http://www.w3.org/2000/svg">
<circle cx="25" cy="25" r="25" fill="white"/>
<path d="M32.5 20.8516C31.9401 21.099 31.3542 21.2617 30.7422 21.3398C31.0547 21.1445 31.3281 20.9036 31.5625 20.6172C31.7969 20.3177 31.9727 19.9857 32.0898 19.6211C31.4779 19.9857 30.8268 20.2396 30.1367 20.3828C29.8503 20.0703 29.5117 19.8294 29.1211 19.6602C28.7305 19.4909 28.3203 19.4062 27.8906 19.4062C27.3307 19.4062 26.8164 19.543 26.3477 19.8164C25.8789 20.0898 25.5013 20.4674 25.2148 20.9492C24.9414 21.418 24.8047 21.9258 24.8047 22.4727C24.8047 22.7201 24.8307 22.9544 24.8828 23.1758C23.6328 23.1237 22.4479 22.8047 21.3281 22.2188C20.2474 21.6719 19.3164 20.9232 18.5352 19.9727C18.2617 20.4414 18.125 20.9557 18.125 21.5156C18.125 22.0365 18.2487 22.5247 18.4961 22.9805C18.7435 23.4362 19.0755 23.8008 19.4922 24.0742C18.9974 24.0612 18.5352 23.931 18.1055 23.6836V23.7227C18.1055 24.4648 18.3398 25.1224 18.8086 25.6953C19.2773 26.2552 19.8633 26.6068 20.5664 26.75C20.306 26.8151 20.0391 26.8477 19.7656 26.8477C19.5703 26.8477 19.375 26.8346 19.1797 26.8086C19.375 27.4206 19.7331 27.9284 20.2539 28.332C20.7878 28.7227 21.3867 28.9245 22.0508 28.9375C21.5169 29.3542 20.9245 29.6797 20.2734 29.9141C19.6224 30.1484 18.9453 30.2656 18.2422 30.2656C17.9948 30.2526 17.7474 30.2331 17.5 30.207C18.1901 30.6497 18.9323 30.9883 19.7266 31.2227C20.5339 31.4701 21.3607 31.5938 22.207 31.5938C23.5742 31.5938 24.8307 31.3268 25.9766 30.793C27.0182 30.3112 27.9297 29.6276 28.7109 28.7422C29.4401 27.9219 30.0065 26.9844 30.4102 25.9297C30.7878 24.901 30.9766 23.8724 30.9766 22.8438L30.957 22.4336C31.569 22.0039 32.0833 21.4766 32.5 20.8516Z" fill="#0A0A0B"/>
</svg>
