<svg width="35" height="35" viewBox="0 0 35 35" fill="none" xmlns="http://www.w3.org/2000/svg">
<circle cx="17.5" cy="17.5" r="17.5" fill="#353B44"/>
<path d="M24.75 13.0664C24.2461 13.2891 23.7188 13.4355 23.168 13.5059C23.4492 13.3301 23.6953 13.1133 23.9062 12.8555C24.1172 12.5859 24.2754 12.2871 24.3809 11.959C23.8301 12.2871 23.2441 12.5156 22.623 12.6445C22.3652 12.3633 22.0605 12.1465 21.709 11.9941C21.3574 11.8418 20.9883 11.7656 20.6016 11.7656C20.0977 11.7656 19.6348 11.8887 19.2129 12.1348C18.791 12.3809 18.4512 12.7207 18.1934 13.1543C17.9473 13.5762 17.8242 14.0332 17.8242 14.5254C17.8242 14.748 17.8477 14.959 17.8945 15.1582C16.7695 15.1113 15.7031 14.8242 14.6953 14.2969C13.7227 13.8047 12.8848 13.1309 12.1816 12.2754C11.9355 12.6973 11.8125 13.1602 11.8125 13.6641C11.8125 14.1328 11.9238 14.5723 12.1465 14.9824C12.3691 15.3926 12.668 15.7207 13.043 15.9668C12.5977 15.9551 12.1816 15.8379 11.7949 15.6152V15.6504C11.7949 16.3184 12.0059 16.9102 12.4277 17.4258C12.8496 17.9297 13.377 18.2461 14.0098 18.375C13.7754 18.4336 13.5352 18.4629 13.2891 18.4629C13.1133 18.4629 12.9375 18.4512 12.7617 18.4277C12.9375 18.9785 13.2598 19.4355 13.7285 19.7988C14.209 20.1504 14.748 20.332 15.3457 20.3438C14.8652 20.7188 14.332 21.0117 13.7461 21.2227C13.1602 21.4336 12.5508 21.5391 11.918 21.5391C11.6953 21.5273 11.4727 21.5098 11.25 21.4863C11.8711 21.8848 12.5391 22.1895 13.2539 22.4004C13.9805 22.623 14.7246 22.7344 15.4863 22.7344C16.7168 22.7344 17.8477 22.4941 18.8789 22.0137C19.8164 21.5801 20.6367 20.9648 21.3398 20.168C21.9961 19.4297 22.5059 18.5859 22.8691 17.6367C23.209 16.7109 23.3789 15.7852 23.3789 14.8594L23.3613 14.4902C23.9121 14.1035 24.375 13.6289 24.75 13.0664Z" fill="white"/>
</svg>
