<svg width="240" height="260" viewBox="0 0 240 260" fill="none" xmlns="http://www.w3.org/2000/svg">
<circle cx="115" cy="145" r="115" fill="#FE8C12"/>
<circle cx="125" cy="115" r="114.5" stroke="#FE8C12"/>
<path d="M99.2969 133H74.4297V126.906L82.7969 118.445C84.5312 116.633 85.875 115.18 86.8281 114.086C87.7969 112.992 88.4766 112.062 88.8672 111.297C89.2578 110.531 89.4531 109.734 89.4531 108.906C89.4531 107.891 89.125 107.156 88.4688 106.703C87.8125 106.25 87.0391 106.023 86.1484 106.023C85.0703 106.023 83.9766 106.336 82.8672 106.961C81.7734 107.57 80.5312 108.477 79.1406 109.68L74.0547 103.727C75.0859 102.805 76.1797 101.93 77.3359 101.102C78.4922 100.258 79.8594 99.5703 81.4375 99.0391C83.0156 98.5078 84.9375 98.2422 87.2031 98.2422C89.5312 98.2422 91.5469 98.6484 93.25 99.4609C94.9688 100.273 96.2969 101.391 97.2344 102.812C98.1719 104.219 98.6406 105.82 98.6406 107.617C98.6406 109.602 98.2734 111.375 97.5391 112.938C96.8203 114.484 95.7344 116.039 94.2812 117.602C92.8281 119.148 91.0156 120.906 88.8438 122.875L86.3359 125.125V125.359H99.2969V133ZM127.422 133H102.555V126.906L110.922 118.445C112.656 116.633 114 115.18 114.953 114.086C115.922 112.992 116.602 112.062 116.992 111.297C117.383 110.531 117.578 109.734 117.578 108.906C117.578 107.891 117.25 107.156 116.594 106.703C115.938 106.25 115.164 106.023 114.273 106.023C113.195 106.023 112.102 106.336 110.992 106.961C109.898 107.57 108.656 108.477 107.266 109.68L102.18 103.727C103.211 102.805 104.305 101.93 105.461 101.102C106.617 100.258 107.984 99.5703 109.562 99.0391C111.141 98.5078 113.062 98.2422 115.328 98.2422C117.656 98.2422 119.672 98.6484 121.375 99.4609C123.094 100.273 124.422 101.391 125.359 102.812C126.297 104.219 126.766 105.82 126.766 107.617C126.766 109.602 126.398 111.375 125.664 112.938C124.945 114.484 123.859 116.039 122.406 117.602C120.953 119.148 119.141 120.906 116.969 122.875L114.461 125.125V125.359H127.422V133ZM146.43 112.938H155.172V119.219H146.43V127.68H140.148V119.219H131.406V112.938H140.148V104.336H146.43V112.938Z" fill="white"/>
<path d="M57.0234 167.281L59.4062 162.578H62.0156L58.2266 169.555V174H55.8203V169.633L52.0312 162.578H54.6562L57.0234 167.281ZM70.0312 174H63.4531V162.578H70.0312V164.562H65.875V167.07H69.7422V169.055H65.875V172H70.0312V174ZM79.4141 174L78.5859 171.281H74.4219L73.5938 174H70.9844L75.0156 162.531H77.9766L82.0234 174H79.4141ZM78.0078 169.25L77.1797 166.594C77.1276 166.417 77.0573 166.19 76.9688 165.914C76.8854 165.633 76.7995 165.349 76.7109 165.062C76.6276 164.771 76.5599 164.518 76.5078 164.305C76.4557 164.518 76.3828 164.784 76.2891 165.102C76.2005 165.414 76.1146 165.711 76.0312 165.992C75.9479 166.273 75.888 166.474 75.8516 166.594L75.0312 169.25H78.0078ZM86.7969 162.578C87.8333 162.578 88.6875 162.703 89.3594 162.953C90.0365 163.203 90.5391 163.581 90.8672 164.086C91.1953 164.591 91.3594 165.229 91.3594 166C91.3594 166.521 91.2604 166.977 91.0625 167.367C90.8646 167.758 90.6042 168.089 90.2812 168.359C89.9583 168.63 89.6094 168.852 89.2344 169.023L92.5938 174H89.9062L87.1797 169.617H85.8906V174H83.4688V162.578H86.7969ZM86.625 164.562H85.8906V167.648H86.6719C87.474 167.648 88.0469 167.516 88.3906 167.25C88.7396 166.979 88.9141 166.583 88.9141 166.062C88.9141 165.521 88.7266 165.135 88.3516 164.906C87.9818 164.677 87.4062 164.562 86.625 164.562ZM107.547 174H105.133V169.07H100.609V174H98.1875V162.578H100.609V167.055H105.133V162.578H107.547V174ZM117.43 174L116.602 171.281H112.438L111.609 174H109L113.031 162.531H115.992L120.039 174H117.43ZM116.023 169.25L115.195 166.594C115.143 166.417 115.073 166.19 114.984 165.914C114.901 165.633 114.815 165.349 114.727 165.062C114.643 164.771 114.576 164.518 114.523 164.305C114.471 164.518 114.398 164.784 114.305 165.102C114.216 165.414 114.13 165.711 114.047 165.992C113.964 166.273 113.904 166.474 113.867 166.594L113.047 169.25H116.023ZM130.445 162.578L126.562 174H123.922L120.047 162.578H122.492L124.641 169.375C124.677 169.49 124.737 169.706 124.82 170.023C124.904 170.336 124.987 170.669 125.07 171.023C125.159 171.372 125.219 171.661 125.25 171.891C125.281 171.661 125.336 171.372 125.414 171.023C125.497 170.674 125.578 170.344 125.656 170.031C125.74 169.714 125.799 169.495 125.836 169.375L128 162.578H130.445ZM138.469 174H131.891V162.578H138.469V164.562H134.312V167.07H138.18V169.055H134.312V172H138.469V174ZM155.383 168.273C155.383 169.154 155.273 169.956 155.055 170.68C154.836 171.398 154.503 172.018 154.055 172.539C153.612 173.06 153.049 173.461 152.367 173.742C151.685 174.018 150.878 174.156 149.945 174.156C149.013 174.156 148.206 174.018 147.523 173.742C146.841 173.461 146.276 173.06 145.828 172.539C145.385 172.018 145.055 171.396 144.836 170.672C144.617 169.948 144.508 169.143 144.508 168.258C144.508 167.076 144.701 166.047 145.086 165.172C145.477 164.292 146.076 163.609 146.883 163.125C147.69 162.641 148.716 162.398 149.961 162.398C151.201 162.398 152.219 162.641 153.016 163.125C153.818 163.609 154.411 164.292 154.797 165.172C155.188 166.052 155.383 167.086 155.383 168.273ZM147.047 168.273C147.047 169.07 147.146 169.758 147.344 170.336C147.547 170.909 147.862 171.352 148.289 171.664C148.716 171.971 149.268 172.125 149.945 172.125C150.633 172.125 151.19 171.971 151.617 171.664C152.044 171.352 152.354 170.909 152.547 170.336C152.745 169.758 152.844 169.07 152.844 168.273C152.844 167.076 152.62 166.133 152.172 165.445C151.724 164.758 150.987 164.414 149.961 164.414C149.279 164.414 148.721 164.57 148.289 164.883C147.862 165.19 147.547 165.633 147.344 166.211C147.146 166.784 147.047 167.471 147.047 168.273ZM167.047 162.578V169.969C167.047 170.755 166.872 171.466 166.523 172.102C166.18 172.732 165.656 173.232 164.953 173.602C164.255 173.971 163.375 174.156 162.312 174.156C160.802 174.156 159.651 173.771 158.859 173C158.068 172.229 157.672 171.208 157.672 169.938V162.578H160.086V169.57C160.086 170.513 160.279 171.174 160.664 171.555C161.049 171.935 161.62 172.125 162.375 172.125C162.906 172.125 163.336 172.034 163.664 171.852C163.997 171.669 164.242 171.388 164.398 171.008C164.555 170.628 164.633 170.143 164.633 169.555V162.578H167.047ZM173.172 162.578C174.208 162.578 175.062 162.703 175.734 162.953C176.411 163.203 176.914 163.581 177.242 164.086C177.57 164.591 177.734 165.229 177.734 166C177.734 166.521 177.635 166.977 177.438 167.367C177.24 167.758 176.979 168.089 176.656 168.359C176.333 168.63 175.984 168.852 175.609 169.023L178.969 174H176.281L173.555 169.617H172.266V174H169.844V162.578H173.172ZM173 164.562H172.266V167.648H173.047C173.849 167.648 174.422 167.516 174.766 167.25C175.115 166.979 175.289 166.583 175.289 166.062C175.289 165.521 175.102 165.135 174.727 164.906C174.357 164.677 173.781 164.562 173 164.562ZM75.6797 200H69.1016V188.578H75.6797V190.562H71.5234V193.07H75.3906V195.055H71.5234V198H75.6797V200ZM87.3047 200H84.5391L81.8828 195.68L79.2266 200H76.6328L80.4219 194.109L76.875 188.578H79.5469L82.0078 192.688L84.4219 188.578H87.0312L83.4453 194.242L87.3047 200ZM92.3906 188.578C93.8646 188.578 94.9401 188.896 95.6172 189.531C96.2943 190.161 96.6328 191.031 96.6328 192.141C96.6328 192.641 96.5573 193.12 96.4062 193.578C96.2552 194.031 96.0078 194.435 95.6641 194.789C95.3255 195.143 94.8724 195.424 94.3047 195.633C93.737 195.836 93.0365 195.938 92.2031 195.938H91.1641V200H88.7422V188.578H92.3906ZM92.2656 190.562H91.1641V193.953H91.9609C92.4141 193.953 92.8073 193.893 93.1406 193.773C93.474 193.654 93.7318 193.466 93.9141 193.211C94.0964 192.956 94.1875 192.628 94.1875 192.227C94.1875 191.664 94.0312 191.247 93.7188 190.977C93.4062 190.701 92.9219 190.562 92.2656 190.562ZM105.367 200H98.7891V188.578H105.367V190.562H101.211V193.07H105.078V195.055H101.211V198H105.367V200ZM111.086 188.578C112.122 188.578 112.977 188.703 113.648 188.953C114.326 189.203 114.828 189.581 115.156 190.086C115.484 190.591 115.648 191.229 115.648 192C115.648 192.521 115.549 192.977 115.352 193.367C115.154 193.758 114.893 194.089 114.57 194.359C114.247 194.63 113.898 194.852 113.523 195.023L116.883 200H114.195L111.469 195.617H110.18V200H107.758V188.578H111.086ZM110.914 190.562H110.18V193.648H110.961C111.763 193.648 112.336 193.516 112.68 193.25C113.029 192.979 113.203 192.583 113.203 192.062C113.203 191.521 113.016 191.135 112.641 190.906C112.271 190.677 111.695 190.562 110.914 190.562ZM124.898 200H118.32V188.578H124.898V190.562H120.742V193.07H124.609V195.055H120.742V198H124.898V200ZM127.289 200V188.578H129.711V200H127.289ZM142.719 200H139.641L134.672 191.359H134.602C134.622 191.719 134.641 192.081 134.656 192.445C134.672 192.81 134.688 193.174 134.703 193.539C134.719 193.898 134.734 194.26 134.75 194.625V200H132.586V188.578H135.641L140.602 197.133H140.656C140.646 196.779 140.633 196.427 140.617 196.078C140.602 195.729 140.586 195.38 140.57 195.031C140.56 194.682 140.549 194.333 140.539 193.984V188.578H142.719V200ZM150.453 190.43C149.99 190.43 149.578 190.521 149.219 190.703C148.865 190.88 148.565 191.138 148.32 191.477C148.081 191.815 147.898 192.224 147.773 192.703C147.648 193.182 147.586 193.721 147.586 194.32C147.586 195.128 147.685 195.818 147.883 196.391C148.086 196.958 148.398 197.393 148.82 197.695C149.242 197.992 149.786 198.141 150.453 198.141C150.917 198.141 151.38 198.089 151.844 197.984C152.312 197.88 152.82 197.732 153.367 197.539V199.57C152.862 199.779 152.365 199.927 151.875 200.016C151.385 200.109 150.836 200.156 150.227 200.156C149.049 200.156 148.081 199.914 147.32 199.43C146.565 198.94 146.005 198.258 145.641 197.383C145.276 196.503 145.094 195.477 145.094 194.305C145.094 193.44 145.211 192.648 145.445 191.93C145.68 191.211 146.023 190.589 146.477 190.062C146.93 189.536 147.49 189.13 148.156 188.844C148.823 188.557 149.589 188.414 150.453 188.414C151.021 188.414 151.589 188.487 152.156 188.633C152.729 188.773 153.276 188.969 153.797 189.219L153.016 191.188C152.589 190.984 152.159 190.807 151.727 190.656C151.294 190.505 150.87 190.43 150.453 190.43ZM162.383 200H155.805V188.578H162.383V190.562H158.227V193.07H162.094V195.055H158.227V198H162.383V200Z" fill="white"/>
</svg>
